PathFileType	4	(X/Y/Z)	joints.trc
DataRate	CameraRate	NumFrames	NumMarkers	Units	OrigDataRate	OrigDataStartFrame	OrigNumFrames
30.0	30.0	15	24	m	30.0	81	100
Frame#	Time	pelvis			femur_r			tibia_r			talus_r			calcn_r			toes_r			femur_l			tibia_l			talus_l			calcn_l			toes_l			lumbar_body			thorax			head			scapula_r			humerus_r			ulna_r			radius_r			hand_r			scapula_l			humerus_l			ulna_l			radius_l			hand_l		
		X1	Y1	Z1	X2	Y2	Z2	X3	Y3	Z3	X4	Y4	Z4	X5	Y5	Z5	X6	Y6	Z6	X7	Y7	Z7	X8	Y8	Z8	X9	Y9	Z9	X10	Y10	Z10	X11	Y11	Z11	X12	Y12	Z12	X13	Y13	Z13	X14	Y14	Z14	X15	Y15	Z15	X16	Y16	Z16	X17	Y17	Z17	X18	Y18	Z18	X19	Y19	Z19	X20	Y20	Z20	X21	Y21	Z21	X22	Y22	Z22	X23	Y23	Z23	X24	Y24	Z24
81	2.666667	0.009499	-0.227776	0.103727	-0.068881	-0.287271	0.021355	-0.118999	-0.684423	0.134756	0.108608	-0.987952	-0.068656	0.130705	-0.970924	-0.124398	0.089236	-1.147648	-0.047877	0.086581	-0.323898	0.069830	0.146836	-0.720043	-0.039057	0.137501	-0.559044	-0.437805	0.144686	-0.506684	-0.470683	0.125843	-0.693552	-0.528187	0.065790	-0.101272	-0.042727	0.062814	0.175043	-0.225281	0.085311	0.280985	-0.287433	-0.050641	0.270257	-0.216556	-0.067568	0.256018	-0.183953	-0.309210	0.387102	-0.116079	-0.308585	0.390337	-0.138165	-0.144469	0.533422	-0.268826	0.221032	0.122082	-0.235874	0.224168	0.084606	-0.223614	0.446062	-0.086318	-0.213116	0.454704	-0.066871	-0.202545	0.425312	-0.000380	0.040102
82	2.700000	0.009801	-0.227274	0.101774	-0.058817	-0.313667	0.035378	-0.168028	-0.655888	-0.175372	-0.166751	-0.610040	-0.602747	-0.170552	-0.551484	-0.623359	-0.237083	-0.721429	-0.696302	0.105754	-0.287482	0.042024	0.152525	-0.661182	-0.132826	-0.011430	-0.638088	-0.528788	-0.025646	-0.591420	-0.567108	0.006575	-0.781105	-0.603523	-0.005085	-0.080356	-0.011877	-0.046712	0.245344	-0.001608	-0.068042	0.356262	0.050911	-0.191126	0.282362	0.019581	-0.204271	0.245038	0.021870	-0.487453	0.237746	0.023842	-0.492311	0.256227	0.012385	-0.574560	0.474642	0.110469	0.125596	0.228940	0.004152	0.142981	0.199692	-0.016392	0.349846	0.210507	-0.206190	0.369837	0.216548	-0.194852	0.589914	0.095908	-0.222028
83	2.733333	0.009499	-0.227776	0.103727	-0.059008	-0.310515	0.033519	-0.103624	-0.724053	0.043410	-0.197046	-0.792779	-0.371149	-0.221155	-0.775956	-0.426114	-0.168812	-0.952501	-0.356126	0.106012	-0.289384	0.046985	-0.000570	-0.680148	0.138426	-0.061466	-1.093353	0.035657	-0.040264	-1.117120	-0.017820	-0.120854	-1.204035	0.138809	0.005018	-0.077786	0.005995	-0.020741	0.250006	0.040802	-0.037985	0.373838	0.034586	-0.163757	0.284041	0.020255	-0.174321	0.246182	0.022969	-0.402726	0.145239	-0.110528	-0.421361	0.156979	-0.106840	-0.644306	0.064227	-0.028276	0.150582	0.253085	0.032581	0.171701	0.225476	0.013705	0.437339	0.257707	-0.069722	0.441580	0.277602	-0.057442	0.598881	0.294081	0.140415
84	2.766667	0.009499	-0.227776	0.103727	-0.051865	-0.338705	0.083787	0.075667	-0.646825	0.332582	-0.077948	-1.037407	0.236878	-0.123797	-1.070834	0.211073	0.012548	-1.119695	0.344599	0.092451	-0.281344	0.022613	0.237263	-0.613984	0.224597	0.355912	-0.980432	0.033166	0.371127	-0.998012	-0.024572	0.425762	-1.068423	0.150467	-0.089833	-0.122622	-0.016537	-0.262140	0.152175	-0.082283	-0.307844	0.266542	-0.103873	-0.394554	0.158404	-0.014094	-0.393056	0.128517	0.011534	-0.615404	0.167236	0.182538	-0.615350	0.189075	0.187200	-0.557393	0.304773	0.405682	-0.111099	0.187003	-0.156653	-0.088406	0.156628	-0.167922	-0.014372	0.220317	-0.430649	-0.016315	0.242570	-0.422547	0.169639	0.376042	-0.314064
85	2.800000	0.009499	-0.227776	0.103727	-0.018491	-0.341447	0.051156	0.203019	-0.691164	0.092784	0.415099	-0.878466	-0.231639	0.415714	-0.883430	-0.293771	0.505138	-0.990375	-0.154586	0.125615	-0.280811	0.109606	0.097722	-0.694944	0.098070	0.231968	-0.790822	-0.299161	0.264850	-0.765969	-0.345801	0.223644	-0.953181	-0.302964	0.032755	-0.118440	-0.032798	-0.008369	0.196152	-0.127124	-0.013256	0.318688	-0.151583	-0.156237	0.219530	-0.152200	-0.171966	0.186318	-0.137993	-0.448251	0.144177	-0.183503	-0.459188	0.162721	-0.177572	-0.625989	0.188343	0.012166	0.156408	0.208510	-0.090702	0.177102	0.174814	-0.089731	0.417579	0.200222	0.051999	0.410588	0.216431	0.067906	0.394943	0.174686	0.317255
86	2.833333	0.009499	-0.227776	0.103727	-0.072806	-0.256129	0.009439	-0.224214	-0.573972	-0.212267	-0.269461	-0.314391	-0.552680	-0.277723	-0.256178	-0.573377	-0.328385	-0.429945	-0.651124	0.093768	-0.265047	0.015186	-0.036960	-0.642481	-0.098266	-0.192248	-0.679888	-0.497633	-0.195491	-0.661057	-0.556870	-0.238891	-0.833953	-0.474379	0.030376	-0.039341	0.068632	0.087318	0.279594	0.135170	0.120510	0.397100	0.162730	-0.041506	0.351545	0.153679	-0.066403	0.321260	0.157579	-0.341327	0.260137	0.186922	-0.350119	0.279348	0.194155	-0.430092	0.330693	0.429628	0.250577	0.237140	0.134516	0.260432	0.203255	0.116648	0.528765	0.235859	0.042508	0.537196	0.248664	0.060662	0.726200	0.174054	0.211902
87	2.866667	0.009499	-0.227776	0.103727	-0.081768	-0.316425	0.086995	0.057800	-0.708246	0.096921	0.195744	-0.863586	-0.280110	0.181135	-0.842455	-0.336903	0.246984	-1.017879	-0.276102	0.076830	-0.312010	0.035161	0.287179	-0.662424	0.108511	0.261060	-0.819417	-0.291088	0.252703	-0.806293	-0.351355	0.339251	-0.959399	-0.263894	-0.027630	-0.106139	-0.021984	-0.029006	0.220254	-0.077348	-0.017591	0.339344	-0.114130	-0.170001	0.268412	-0.082209	-0.188392	0.237456	-0.066217	-0.445628	0.120007	-0.051530	-0.459322	0.133768	-0.062566	-0.642981	0.280854	0.032906	0.141420	0.197821	-0.087814	0.154384	0.161530	-0.096731	0.371036	0.039556	-0.226140	0.382508	0.060238	-0.223846	0.546014	0.111982	-0.037431
88	2.900000	0.009499	-0.227776	0.103727	-0.068714	-0.320169	0.061130	-0.026011	-0.683951	-0.136205	0.091561	-0.732452	-0.547466	0.093907	-0.710391	-0.605717	0.099125	-0.894908	-0.536923	0.086191	-0.278513	0.014990	0.259924	-0.594887	-0.190294	0.153080	-0.611283	-0.606615	0.127190	-0.566704	-0.641495	0.221608	-0.731231	-0.692457	-0.065458	-0.086259	0.014294	-0.171252	0.227256	0.016254	-0.210861	0.345930	0.011083	-0.308211	0.250523	0.070202	-0.312770	0.216948	0.090307	-0.485987	0.087209	0.272910	-0.498844	0.105025	0.276900	-0.474600	0.272576	0.466159	-0.016274	0.237502	-0.055632	0.000647	0.205044	-0.070624	0.137443	0.142509	-0.307138	0.144523	0.165147	-0.305725	0.353742	0.243651	-0.186447
89	2.933333	0.009499	-0.227776	0.103727	-0.062664	-0.266970	0.005114	-0.086494	-0.656814	-0.138256	-0.027093	-0.832389	-0.526787	-0.029298	-0.845602	-0.587664	-0.076241	-0.953165	-0.429445	0.103142	-0.259062	0.022596	0.197255	-0.650484	-0.079135	0.133449	-0.800486	-0.477175	0.125993	-0.783487	-0.536586	0.152038	-0.960379	-0.455270	0.023893	-0.039501	0.062296	0.031268	0.275332	0.157667	-0.011877	0.387797	0.189674	-0.113317	0.304732	0.170302	-0.124226	0.267223	0.165176	-0.376643	0.256412	0.037313	-0.381742	0.277731	0.033054	-0.556261	0.426020	0.142751	0.201132	0.274627	0.170866	0.218861	0.249148	0.146349	0.448147	0.089139	0.166040	0.450716	0.101623	0.186095	0.353447	0.047592	0.413651
90	2.966667	0.009499	-0.227776	0.103727	-0.075695	-0.297549	0.037833	-0.141586	-0.706616	0.075569	-0.099870	-0.439554	-0.259466	-0.112016	-0.382214	-0.238254	-0.126370	-0.462638	-0.417509	0.090804	-0.291012	0.028091	0.105511	-0.702525	0.081550	0.023052	-0.912592	-0.284620	0.020347	-0.940336	-0.340272	-0.034226	-0.999722	-0.161173	-0.028664	-0.071892	-0.001092	-0.198611	0.189552	0.106008	-0.286599	0.262532	0.157146	-0.248166	0.136766	0.237474	-0.227380	0.103785	0.243168	-0.280320	-0.035693	0.483842	-0.270943	-0.028048	0.502611	-0.159055	-0.154779	0.692083	-0.098513	0.300408	0.036788	-0.076493	0.290958	0.005317	0.021129	0.447585	-0.205633	0.024220	0.469438	-0.196828	0.228245	0.618467	-0.214904
91	3.000000	0.009499	-0.227776	0.103727	-0.076087	-0.285537	0.027524	-0.257929	-0.648473	-0.063653	-0.174338	-0.843462	-0.438222	-0.153320	-0.824760	-0.493845	-0.258529	-0.982747	-0.441142	0.070107	-0.339124	0.087653	0.013409	-0.738546	0.185965	0.152441	-1.025314	-0.102897	0.190559	-1.038320	-0.150353	0.106429	-1.155523	-0.017060	0.109480	-0.133848	-0.032156	0.310793	0.102520	-0.147241	0.392619	0.181077	-0.201005	0.238428	0.197065	-0.236710	0.199813	0.191659	-0.231055	0.075350	0.206849	-0.484941	0.092150	0.219472	-0.492496	0.121983	0.470991	-0.474386	0.421341	0.019947	-0.044085	0.415423	-0.017765	-0.033719	0.628721	-0.193437	0.013245	0.640827	-0.176042	0.023990	0.662870	-0.151176	0.275104
92	3.033333	0.009499	-0.227776	0.103727	-0.075140	-0.298324	0.037944	-0.175801	-0.697026	-0.025353	-0.155574	-0.915836	-0.395521	-0.157795	-0.917692	-0.457787	-0.209764	-1.050659	-0.322046	0.089617	-0.316143	0.057874	0.078073	-0.664011	0.284308	0.197878	-0.897007	-0.056819	0.224580	-0.885225	-0.111795	0.204922	-1.053131	-0.011783	0.027300	-0.089958	-0.000048	-0.008893	0.238505	-0.008359	-0.029249	0.361142	-0.012640	-0.145182	0.233070	-0.075500	-0.156051	0.195533	-0.070486	-0.387955	0.066190	-0.168829	-0.407115	0.077212	-0.165655	-0.623600	-0.010831	-0.066344	0.137570	0.282726	0.059998	0.166657	0.256219	0.063990	0.439869	0.300325	0.108400	0.440569	0.322378	0.117220	0.543142	0.386904	0.339656
93	3.066667	0.009561	-0.227344	0.104996	-0.051172	-0.325047	0.047794	0.173585	-0.679826	0.062321	0.156156	-0.949526	-0.280519	0.106118	-0.941262	-0.317779	0.208982	-1.102170	-0.261611	0.096012	-0.251619	0.013563	0.079882	-0.648297	-0.121720	-0.090898	-0.650263	-0.523296	-0.101003	-0.612161	-0.572397	-0.073889	-0.808648	-0.562370	-0.091575	-0.100608	0.056689	-0.247456	0.121342	0.245597	-0.319199	0.204417	0.301971	-0.385248	0.065497	0.260095	-0.374847	0.030155	0.245526	-0.567889	-0.171253	0.176745	-0.568328	-0.177846	0.198328	-0.407426	-0.342332	0.315909	-0.100401	0.210394	0.265664	-0.074975	0.205396	0.235308	0.170229	0.345713	0.213174	0.169545	0.360952	0.231601	0.344892	0.382608	0.419322
94	3.100000	0.009499	-0.227776	0.103727	-0.059570	-0.295105	0.019083	-0.041525	-0.586335	-0.277500	-0.228741	-0.209945	-0.370192	-0.262049	-0.158406	-0.359251	-0.287825	-0.312331	-0.479457	0.097502	-0.239117	0.011766	0.032765	-0.615385	-0.151480	0.079628	-0.787038	-0.543075	0.105666	-0.790395	-0.599510	-0.016230	-0.912570	-0.505722	-0.052245	-0.056980	0.066265	-0.200321	0.189940	0.221270	-0.232128	0.284759	0.296742	-0.336060	0.155463	0.271379	-0.330677	0.119607	0.255963	-0.565906	-0.005141	0.159603	-0.572186	0.016117	0.162315	-0.586199	0.148888	0.378313	-0.058255	0.271701	0.167691	-0.041901	0.267367	0.131936	0.200625	0.374753	0.041316	0.213217	0.378966	0.061021	0.448335	0.300411	0.113093
95	3.133333	0.009499	-0.227776	0.103727	-0.045851	-0.343554	0.103857	0.177032	-0.563210	0.378041	0.320855	-0.893639	0.142578	0.299962	-0.918101	0.089188	0.450120	-0.970096	0.205616	0.096295	-0.290677	0.034157	0.325918	-0.614379	-0.087941	0.220391	-0.880408	-0.409034	0.186266	-0.886638	-0.460714	0.354031	-0.972885	-0.405962	-0.065902	-0.141177	-0.040076	-0.173382	0.140739	-0.171338	-0.239226	0.222974	-0.239584	-0.314904	0.087318	-0.178668	-0.316650	0.055554	-0.155425	-0.418348	-0.206906	-0.124563	-0.438671	-0.198047	-0.121884	-0.537028	-0.103660	0.092351	-0.035565	0.235266	-0.176266	-0.000140	0.218472	-0.171008	0.247062	0.350558	-0.173561	0.238215	0.367674	-0.159654	0.274527	0.398737	0.089101
